<mxfile host="app.diagrams.net" agent="Mozilla/5.0 (Windows NT 10.0; Win64; x64) AppleWebKit/537.36 (KHTML, like Gecko) Chrome/138.0.0.0 Safari/537.36" version="28.0.7">
  <diagram name="Page-1" id="9X8o5UWoxojjM1NTcAzD">
    <mxGraphModel dx="2276" dy="1843" grid="1" gridSize="10" guides="1" tooltips="1" connect="1" arrows="1" fold="1" page="1" pageScale="1" pageWidth="850" pageHeight="1100" math="0" shadow="0">
      <root>
        <mxCell id="0" />
        <mxCell id="1" parent="0" />
        <mxCell id="Du1YflRCCDf4dTkNwt9_-1" value="" style="image;aspect=fixed;perimeter=ellipsePerimeter;html=1;align=center;shadow=0;dashed=0;spacingTop=3;image=img/lib/active_directory/interface.svg;" vertex="1" parent="1">
          <mxGeometry x="30" y="358.56" width="90" height="42.3" as="geometry" />
        </mxCell>
        <mxCell id="Du1YflRCCDf4dTkNwt9_-2" value="" style="image;aspect=fixed;html=1;points=[];align=center;fontSize=12;image=img/lib/azure2/general/Dashboard.svg;" vertex="1" parent="1">
          <mxGeometry x="191" y="360" width="57.89" height="40.86" as="geometry" />
        </mxCell>
        <mxCell id="Du1YflRCCDf4dTkNwt9_-3" value="" style="html=1;verticalLabelPosition=bottom;align=center;labelBackgroundColor=#ffffff;verticalAlign=top;strokeWidth=2;strokeColor=#0080F0;shadow=0;dashed=0;shape=mxgraph.ios7.icons.map;" vertex="1" parent="1">
          <mxGeometry x="291" y="435.86" width="80" height="59.99" as="geometry" />
        </mxCell>
        <mxCell id="Du1YflRCCDf4dTkNwt9_-4" value="" style="html=1;verticalLabelPosition=bottom;labelBackgroundColor=#ffffff;verticalAlign=top;shadow=0;dashed=0;strokeWidth=2;shape=mxgraph.ios7.misc.current_location;strokeColor=#ffffff;fillColor=#0080F0;sketch=0;" vertex="1" parent="1">
          <mxGeometry x="301" y="570.85" width="60" height="60" as="geometry" />
        </mxCell>
        <mxCell id="Du1YflRCCDf4dTkNwt9_-5" value="View color-based zones" style="rounded=0;whiteSpace=wrap;html=1;fillColor=#dae8fc;strokeColor=#6c8ebf;" vertex="1" parent="1">
          <mxGeometry x="451" y="445.85" width="100" height="50" as="geometry" />
        </mxCell>
        <mxCell id="Du1YflRCCDf4dTkNwt9_-6" value="View flags setup by other users" style="rounded=0;whiteSpace=wrap;html=1;fillColor=#dae8fc;strokeColor=#6c8ebf;" vertex="1" parent="1">
          <mxGeometry x="451" y="510.85" width="100" height="50" as="geometry" />
        </mxCell>
        <mxCell id="Du1YflRCCDf4dTkNwt9_-7" value="View safety&lt;div&gt;matrix&lt;/div&gt;" style="rounded=0;whiteSpace=wrap;html=1;fillColor=#dae8fc;strokeColor=#6c8ebf;" vertex="1" parent="1">
          <mxGeometry x="451" y="580.85" width="100" height="50" as="geometry" />
        </mxCell>
        <mxCell id="Du1YflRCCDf4dTkNwt9_-9" value="" style="endArrow=none;html=1;rounded=0;" edge="1" parent="1" source="Du1YflRCCDf4dTkNwt9_-2">
          <mxGeometry width="50" height="50" relative="1" as="geometry">
            <mxPoint x="281" y="370.85" as="sourcePoint" />
            <mxPoint x="260" y="380" as="targetPoint" />
          </mxGeometry>
        </mxCell>
        <mxCell id="Du1YflRCCDf4dTkNwt9_-10" value="" style="endArrow=classic;html=1;rounded=0;entryX=0;entryY=0.5;entryDx=0;entryDy=0;entryPerimeter=0;" edge="1" parent="1">
          <mxGeometry width="50" height="50" relative="1" as="geometry">
            <mxPoint x="260" y="460.23" as="sourcePoint" />
            <mxPoint x="291" y="459.99500000000006" as="targetPoint" />
            <Array as="points">
              <mxPoint x="280" y="460.15000000000003" />
            </Array>
          </mxGeometry>
        </mxCell>
        <mxCell id="Du1YflRCCDf4dTkNwt9_-11" value="" style="endArrow=classic;html=1;rounded=0;entryX=0.5;entryY=0;entryDx=0;entryDy=0;entryPerimeter=0;" edge="1" parent="1" target="Du1YflRCCDf4dTkNwt9_-4">
          <mxGeometry width="50" height="50" relative="1" as="geometry">
            <mxPoint x="331" y="500.85" as="sourcePoint" />
            <mxPoint x="491" y="460.85" as="targetPoint" />
          </mxGeometry>
        </mxCell>
        <mxCell id="Du1YflRCCDf4dTkNwt9_-12" value="" style="endArrow=none;html=1;rounded=0;exitX=1;exitY=0.5;exitDx=0;exitDy=0;exitPerimeter=0;" edge="1" parent="1" source="Du1YflRCCDf4dTkNwt9_-4">
          <mxGeometry width="50" height="50" relative="1" as="geometry">
            <mxPoint x="441" y="510.85" as="sourcePoint" />
            <mxPoint x="411" y="600.85" as="targetPoint" />
          </mxGeometry>
        </mxCell>
        <mxCell id="Du1YflRCCDf4dTkNwt9_-13" value="" style="endArrow=none;html=1;rounded=0;" edge="1" parent="1">
          <mxGeometry width="50" height="50" relative="1" as="geometry">
            <mxPoint x="411" y="600.85" as="sourcePoint" />
            <mxPoint x="411" y="460.85" as="targetPoint" />
          </mxGeometry>
        </mxCell>
        <mxCell id="Du1YflRCCDf4dTkNwt9_-14" value="" style="endArrow=none;html=1;rounded=0;" edge="1" parent="1">
          <mxGeometry width="50" height="50" relative="1" as="geometry">
            <mxPoint x="411" y="600.85" as="sourcePoint" />
            <mxPoint x="411" y="610.85" as="targetPoint" />
          </mxGeometry>
        </mxCell>
        <mxCell id="Du1YflRCCDf4dTkNwt9_-15" value="" style="endArrow=classic;html=1;rounded=0;entryX=-0.03;entryY=0.601;entryDx=0;entryDy=0;entryPerimeter=0;" edge="1" parent="1" target="Du1YflRCCDf4dTkNwt9_-7">
          <mxGeometry width="50" height="50" relative="1" as="geometry">
            <mxPoint x="411" y="610.85" as="sourcePoint" />
            <mxPoint x="491" y="460.85" as="targetPoint" />
          </mxGeometry>
        </mxCell>
        <mxCell id="Du1YflRCCDf4dTkNwt9_-16" value="" style="endArrow=classic;html=1;rounded=0;entryX=-0.03;entryY=0.594;entryDx=0;entryDy=0;entryPerimeter=0;" edge="1" parent="1" target="Du1YflRCCDf4dTkNwt9_-6">
          <mxGeometry width="50" height="50" relative="1" as="geometry">
            <mxPoint x="411" y="540.85" as="sourcePoint" />
            <mxPoint x="491" y="460.85" as="targetPoint" />
          </mxGeometry>
        </mxCell>
        <mxCell id="Du1YflRCCDf4dTkNwt9_-17" value="" style="endArrow=classic;html=1;rounded=0;" edge="1" parent="1">
          <mxGeometry width="50" height="50" relative="1" as="geometry">
            <mxPoint x="411" y="460.85" as="sourcePoint" />
            <mxPoint x="451" y="460.85" as="targetPoint" />
          </mxGeometry>
        </mxCell>
        <mxCell id="Du1YflRCCDf4dTkNwt9_-18" value="" style="endArrow=none;html=1;rounded=0;" edge="1" parent="1">
          <mxGeometry width="50" height="50" relative="1" as="geometry">
            <mxPoint x="601" y="650.85" as="sourcePoint" />
            <mxPoint x="601" y="470.85" as="targetPoint" />
          </mxGeometry>
        </mxCell>
        <mxCell id="Du1YflRCCDf4dTkNwt9_-19" value="" style="endArrow=none;html=1;rounded=0;exitX=1;exitY=0.5;exitDx=0;exitDy=0;" edge="1" parent="1" source="Du1YflRCCDf4dTkNwt9_-5">
          <mxGeometry width="50" height="50" relative="1" as="geometry">
            <mxPoint x="441" y="470.85" as="sourcePoint" />
            <mxPoint x="601" y="470.85" as="targetPoint" />
          </mxGeometry>
        </mxCell>
        <mxCell id="Du1YflRCCDf4dTkNwt9_-20" value="" style="endArrow=none;html=1;rounded=0;exitX=1.004;exitY=0.594;exitDx=0;exitDy=0;exitPerimeter=0;" edge="1" parent="1" source="Du1YflRCCDf4dTkNwt9_-6">
          <mxGeometry width="50" height="50" relative="1" as="geometry">
            <mxPoint x="411" y="580.85" as="sourcePoint" />
            <mxPoint x="601" y="540.85" as="targetPoint" />
          </mxGeometry>
        </mxCell>
        <mxCell id="Du1YflRCCDf4dTkNwt9_-21" value="" style="endArrow=none;html=1;rounded=0;exitX=1;exitY=0.75;exitDx=0;exitDy=0;" edge="1" parent="1" source="Du1YflRCCDf4dTkNwt9_-7">
          <mxGeometry width="50" height="50" relative="1" as="geometry">
            <mxPoint x="411" y="580.85" as="sourcePoint" />
            <mxPoint x="601" y="618.85" as="targetPoint" />
          </mxGeometry>
        </mxCell>
        <mxCell id="Du1YflRCCDf4dTkNwt9_-22" value="" style="endArrow=none;html=1;rounded=0;" edge="1" parent="1">
          <mxGeometry width="50" height="50" relative="1" as="geometry">
            <mxPoint x="601" y="650.85" as="sourcePoint" />
            <mxPoint x="211" y="650.85" as="targetPoint" />
          </mxGeometry>
        </mxCell>
        <mxCell id="Du1YflRCCDf4dTkNwt9_-23" value="" style="endArrow=classic;html=1;rounded=0;entryX=0.365;entryY=1.027;entryDx=0;entryDy=0;entryPerimeter=0;" edge="1" parent="1" target="Du1YflRCCDf4dTkNwt9_-2">
          <mxGeometry width="50" height="50" relative="1" as="geometry">
            <mxPoint x="211" y="650.85" as="sourcePoint" />
            <mxPoint x="461" y="530.85" as="targetPoint" />
          </mxGeometry>
        </mxCell>
        <mxCell id="Du1YflRCCDf4dTkNwt9_-24" value="" style="endArrow=none;html=1;rounded=0;" edge="1" parent="1">
          <mxGeometry width="50" height="50" relative="1" as="geometry">
            <mxPoint x="260" y="320" as="sourcePoint" />
            <mxPoint x="260" y="380" as="targetPoint" />
          </mxGeometry>
        </mxCell>
        <mxCell id="Du1YflRCCDf4dTkNwt9_-25" value="&lt;font style=&quot;font-size: 10px;&quot;&gt;Registered&lt;/font&gt;&lt;div&gt;&lt;font style=&quot;font-size: 10px;&quot;&gt;Official&lt;/font&gt;&lt;div&gt;&lt;font style=&quot;font-size: 10px;&quot;&gt;Dashboard&lt;/font&gt;&lt;/div&gt;&lt;/div&gt;" style="text;strokeColor=none;align=center;fillColor=none;html=1;verticalAlign=middle;whiteSpace=wrap;rounded=0;" vertex="1" parent="1">
          <mxGeometry x="156" y="400.86" width="50" height="49.14" as="geometry" />
        </mxCell>
        <mxCell id="Du1YflRCCDf4dTkNwt9_-26" value="&lt;div&gt;&lt;span style=&quot;font-size: 10px;&quot;&gt;General&lt;/span&gt;&lt;/div&gt;&lt;span style=&quot;font-size: 10px;&quot;&gt;Heatmap&lt;/span&gt;&lt;div&gt;&lt;span style=&quot;font-size: 10px;&quot;&gt;view&lt;/span&gt;&lt;/div&gt;" style="text;strokeColor=none;align=center;fillColor=none;html=1;verticalAlign=middle;whiteSpace=wrap;rounded=0;" vertex="1" parent="1">
          <mxGeometry x="231" y="480.86" width="50" height="59.14" as="geometry" />
        </mxCell>
        <mxCell id="Du1YflRCCDf4dTkNwt9_-27" value="&lt;span style=&quot;font-size: 10px;&quot;&gt;Get&lt;/span&gt;&lt;div&gt;&lt;span style=&quot;font-size: 10px;&quot;&gt;user&lt;/span&gt;&lt;/div&gt;&lt;div&gt;&lt;span style=&quot;font-size: 10px;&quot;&gt;location&lt;/span&gt;&lt;/div&gt;" style="text;strokeColor=none;align=center;fillColor=none;html=1;verticalAlign=middle;whiteSpace=wrap;rounded=0;" vertex="1" parent="1">
          <mxGeometry x="281" y="510.85" width="50" height="50" as="geometry" />
        </mxCell>
        <mxCell id="Du1YflRCCDf4dTkNwt9_-28" value="&lt;span style=&quot;font-size: 10px;&quot;&gt;Access services&lt;/span&gt;" style="text;strokeColor=none;align=center;fillColor=none;html=1;verticalAlign=middle;whiteSpace=wrap;rounded=0;" vertex="1" parent="1">
          <mxGeometry x="361" y="525.85" width="50" height="50" as="geometry" />
        </mxCell>
        <mxCell id="Du1YflRCCDf4dTkNwt9_-29" value="&lt;span style=&quot;font-size: 10px;&quot;&gt;Upon&lt;/span&gt;&lt;div&gt;&lt;span style=&quot;font-size: 10px;&quot;&gt;intent&lt;/span&gt;&lt;/div&gt;&lt;div&gt;&lt;span style=&quot;font-size: 10px;&quot;&gt;switch back to dashboard&lt;/span&gt;&lt;/div&gt;" style="text;strokeColor=none;align=center;fillColor=none;html=1;verticalAlign=middle;whiteSpace=wrap;rounded=0;" vertex="1" parent="1">
          <mxGeometry x="606" y="510.85" width="50" height="100" as="geometry" />
        </mxCell>
        <mxCell id="Du1YflRCCDf4dTkNwt9_-60" value="" style="endArrow=classic;html=1;rounded=0;exitX=1;exitY=0.5;exitDx=0;exitDy=0;" edge="1" parent="1" source="Du1YflRCCDf4dTkNwt9_-1">
          <mxGeometry width="50" height="50" relative="1" as="geometry">
            <mxPoint x="130" y="420" as="sourcePoint" />
            <mxPoint x="190" y="380" as="targetPoint" />
          </mxGeometry>
        </mxCell>
        <mxCell id="Du1YflRCCDf4dTkNwt9_-61" value="" style="endArrow=none;html=1;rounded=0;" edge="1" parent="1">
          <mxGeometry width="50" height="50" relative="1" as="geometry">
            <mxPoint x="260" y="380" as="sourcePoint" />
            <mxPoint x="260" y="460" as="targetPoint" />
          </mxGeometry>
        </mxCell>
        <mxCell id="Du1YflRCCDf4dTkNwt9_-63" value="&lt;span style=&quot;font-size: 10px;&quot;&gt;Redirection&lt;/span&gt;&lt;div&gt;&lt;span style=&quot;font-size: 10px;&quot;&gt;from&lt;/span&gt;&lt;/div&gt;&lt;div&gt;&lt;span style=&quot;font-size: 10px;&quot;&gt;Login&lt;/span&gt;&lt;/div&gt;" style="text;strokeColor=none;align=center;fillColor=none;html=1;verticalAlign=middle;whiteSpace=wrap;rounded=0;" vertex="1" parent="1">
          <mxGeometry x="70" y="400.86" width="60" height="49.14" as="geometry" />
        </mxCell>
        <mxCell id="Du1YflRCCDf4dTkNwt9_-65" value="" style="shape=mxgraph.sap.icon;labelPosition=center;verticalLabelPosition=bottom;align=center;verticalAlign=top;strokeWidth=1;strokeColor=#D5DADD;fillColor=#EDEFF0;gradientColor=#FCFCFC;gradientDirection=west;aspect=fixed;SAPIcon=SAP_Watch_List_Screening" vertex="1" parent="1">
          <mxGeometry x="291" y="290" width="50" height="50" as="geometry" />
        </mxCell>
        <mxCell id="Du1YflRCCDf4dTkNwt9_-66" value="" style="endArrow=classic;html=1;rounded=0;" edge="1" parent="1">
          <mxGeometry width="50" height="50" relative="1" as="geometry">
            <mxPoint x="260" y="320" as="sourcePoint" />
            <mxPoint x="290" y="320" as="targetPoint" />
          </mxGeometry>
        </mxCell>
        <mxCell id="Du1YflRCCDf4dTkNwt9_-67" value="" style="endArrow=classic;html=1;rounded=0;startArrow=classic;startFill=1;" edge="1" parent="1">
          <mxGeometry width="50" height="50" relative="1" as="geometry">
            <mxPoint x="310" y="290" as="sourcePoint" />
            <mxPoint x="310" y="240" as="targetPoint" />
          </mxGeometry>
        </mxCell>
        <mxCell id="Du1YflRCCDf4dTkNwt9_-68" value="" style="endArrow=none;html=1;rounded=0;" edge="1" parent="1">
          <mxGeometry width="50" height="50" relative="1" as="geometry">
            <mxPoint x="310" y="270" as="sourcePoint" />
            <mxPoint x="200" y="270" as="targetPoint" />
          </mxGeometry>
        </mxCell>
        <mxCell id="Du1YflRCCDf4dTkNwt9_-69" value="" style="endArrow=classic;html=1;rounded=0;" edge="1" parent="1">
          <mxGeometry width="50" height="50" relative="1" as="geometry">
            <mxPoint x="255.8" y="270" as="sourcePoint" />
            <mxPoint x="255.8" y="240" as="targetPoint" />
          </mxGeometry>
        </mxCell>
        <mxCell id="Du1YflRCCDf4dTkNwt9_-70" value="" style="endArrow=classic;html=1;rounded=0;" edge="1" parent="1">
          <mxGeometry width="50" height="50" relative="1" as="geometry">
            <mxPoint x="200" y="270" as="sourcePoint" />
            <mxPoint x="200" y="240" as="targetPoint" />
          </mxGeometry>
        </mxCell>
        <mxCell id="Du1YflRCCDf4dTkNwt9_-71" value="" style="endArrow=classic;html=1;rounded=0;exitX=1.017;exitY=0.594;exitDx=0;exitDy=0;exitPerimeter=0;" edge="1" parent="1" source="Du1YflRCCDf4dTkNwt9_-65">
          <mxGeometry width="50" height="50" relative="1" as="geometry">
            <mxPoint x="420" y="340" as="sourcePoint" />
            <mxPoint x="400" y="320" as="targetPoint" />
          </mxGeometry>
        </mxCell>
        <mxCell id="Du1YflRCCDf4dTkNwt9_-72" value="Attend to the cleanup request&lt;div&gt;generated by the citizen flow&lt;/div&gt;" style="rounded=0;whiteSpace=wrap;html=1;fillColor=#dae8fc;strokeColor=#6c8ebf;" vertex="1" parent="1">
          <mxGeometry x="400" y="288.56" width="100" height="70" as="geometry" />
        </mxCell>
        <mxCell id="Du1YflRCCDf4dTkNwt9_-75" value="" style="shape=mxgraph.signs.transportation.car_1;html=1;pointerEvents=1;fillColor=#000000;strokeColor=none;verticalLabelPosition=bottom;verticalAlign=top;align=center;" vertex="1" parent="1">
          <mxGeometry x="580" y="288.56" width="80" height="68" as="geometry" />
        </mxCell>
        <mxCell id="Du1YflRCCDf4dTkNwt9_-76" value="" style="endArrow=classic;html=1;rounded=0;exitX=1;exitY=0.5;exitDx=0;exitDy=0;" edge="1" parent="1" source="Du1YflRCCDf4dTkNwt9_-72">
          <mxGeometry width="50" height="50" relative="1" as="geometry">
            <mxPoint x="500" y="280" as="sourcePoint" />
            <mxPoint x="570" y="324" as="targetPoint" />
          </mxGeometry>
        </mxCell>
        <mxCell id="Du1YflRCCDf4dTkNwt9_-77" value="" style="endArrow=classic;html=1;rounded=0;exitX=0.5;exitY=0;exitDx=0;exitDy=0;exitPerimeter=0;" edge="1" parent="1" source="Du1YflRCCDf4dTkNwt9_-75">
          <mxGeometry width="50" height="50" relative="1" as="geometry">
            <mxPoint x="620" y="280" as="sourcePoint" />
            <mxPoint x="620" y="240" as="targetPoint" />
          </mxGeometry>
        </mxCell>
        <mxCell id="Du1YflRCCDf4dTkNwt9_-78" value="Cleanup undertaken by the on-site personnel" style="rounded=0;whiteSpace=wrap;html=1;fillColor=#dae8fc;strokeColor=#6c8ebf;" vertex="1" parent="1">
          <mxGeometry x="570" y="170" width="100" height="70" as="geometry" />
        </mxCell>
        <mxCell id="Du1YflRCCDf4dTkNwt9_-79" value="" style="endArrow=classic;html=1;rounded=0;exitX=0;exitY=0.5;exitDx=0;exitDy=0;" edge="1" parent="1" source="Du1YflRCCDf4dTkNwt9_-78">
          <mxGeometry width="50" height="50" relative="1" as="geometry">
            <mxPoint x="500" y="260" as="sourcePoint" />
            <mxPoint x="520" y="205" as="targetPoint" />
          </mxGeometry>
        </mxCell>
        <mxCell id="Du1YflRCCDf4dTkNwt9_-86" style="edgeStyle=orthogonalEdgeStyle;rounded=0;orthogonalLoop=1;jettySize=auto;html=1;exitX=0.5;exitY=0;exitDx=0;exitDy=0;entryX=0.5;entryY=1;entryDx=0;entryDy=0;" edge="1" parent="1" source="Du1YflRCCDf4dTkNwt9_-80" target="Du1YflRCCDf4dTkNwt9_-81">
          <mxGeometry relative="1" as="geometry" />
        </mxCell>
        <mxCell id="Du1YflRCCDf4dTkNwt9_-80" value="Verify the Registered Cleanup Confirmation" style="rounded=0;whiteSpace=wrap;html=1;fillColor=#dae8fc;strokeColor=#6c8ebf;" vertex="1" parent="1">
          <mxGeometry x="420" y="170" width="100" height="70" as="geometry" />
        </mxCell>
        <mxCell id="Du1YflRCCDf4dTkNwt9_-84" style="edgeStyle=orthogonalEdgeStyle;rounded=0;orthogonalLoop=1;jettySize=auto;html=1;exitX=0;exitY=0.5;exitDx=0;exitDy=0;" edge="1" parent="1" source="Du1YflRCCDf4dTkNwt9_-81">
          <mxGeometry relative="1" as="geometry">
            <mxPoint x="510" y="94.89655172413791" as="targetPoint" />
          </mxGeometry>
        </mxCell>
        <mxCell id="Du1YflRCCDf4dTkNwt9_-81" value=".post(&quot;/cleanup&quot;)" style="rounded=0;whiteSpace=wrap;html=1;fillColor=#e1d5e7;strokeColor=#9673a6;" vertex="1" parent="1">
          <mxGeometry x="570" y="70" width="100" height="50" as="geometry" />
        </mxCell>
        <mxCell id="Du1YflRCCDf4dTkNwt9_-87" style="edgeStyle=orthogonalEdgeStyle;rounded=0;orthogonalLoop=1;jettySize=auto;html=1;exitX=0;exitY=0.5;exitDx=0;exitDy=0;exitPerimeter=0;endArrow=none;endFill=0;" edge="1" parent="1" source="Du1YflRCCDf4dTkNwt9_-82">
          <mxGeometry relative="1" as="geometry">
            <mxPoint x="160" y="80" as="targetPoint" />
          </mxGeometry>
        </mxCell>
        <mxCell id="Du1YflRCCDf4dTkNwt9_-101" style="edgeStyle=orthogonalEdgeStyle;rounded=0;orthogonalLoop=1;jettySize=auto;html=1;exitX=0;exitY=0.5;exitDx=0;exitDy=0;exitPerimeter=0;" edge="1" parent="1" source="Du1YflRCCDf4dTkNwt9_-82">
          <mxGeometry relative="1" as="geometry">
            <mxPoint x="100.0344827586207" y="160" as="targetPoint" />
          </mxGeometry>
        </mxCell>
        <mxCell id="Du1YflRCCDf4dTkNwt9_-82" value="Database" style="shape=cylinder3;whiteSpace=wrap;html=1;boundedLbl=1;backgroundOutline=1;size=15;fillColor=#fff2cc;strokeColor=#d6b656;" vertex="1" parent="1">
          <mxGeometry x="130" y="40" width="69" height="80" as="geometry" />
        </mxCell>
        <mxCell id="Du1YflRCCDf4dTkNwt9_-89" value="" style="endArrow=none;html=1;rounded=0;" edge="1" parent="1">
          <mxGeometry width="50" height="50" relative="1" as="geometry">
            <mxPoint x="160" y="320" as="sourcePoint" />
            <mxPoint x="260" y="320" as="targetPoint" />
          </mxGeometry>
        </mxCell>
        <mxCell id="Du1YflRCCDf4dTkNwt9_-90" value="&lt;span style=&quot;font-size: 10px;&quot;&gt;View and operate records based on the Heatmap&lt;/span&gt;" style="text;strokeColor=none;align=center;fillColor=none;html=1;verticalAlign=middle;whiteSpace=wrap;rounded=0;" vertex="1" parent="1">
          <mxGeometry x="286.5" y="340" width="89" height="50" as="geometry" />
        </mxCell>
        <mxCell id="Du1YflRCCDf4dTkNwt9_-91" value="&lt;span style=&quot;font-size: 10px;&quot;&gt;Direct to on-site&lt;/span&gt;&lt;div&gt;&lt;span style=&quot;font-size: 10px;&quot;&gt;personnel&lt;/span&gt;&lt;/div&gt;" style="text;strokeColor=none;align=center;fillColor=none;html=1;verticalAlign=middle;whiteSpace=wrap;rounded=0;" vertex="1" parent="1">
          <mxGeometry x="504.5" y="330" width="70" height="50" as="geometry" />
        </mxCell>
        <mxCell id="Du1YflRCCDf4dTkNwt9_-92" value="&lt;span style=&quot;font-size: 10px;&quot;&gt;Clicks&lt;/span&gt;&lt;div&gt;&lt;span style=&quot;font-size: 10px;&quot;&gt;&quot;cleared&quot;&lt;/span&gt;&lt;/div&gt;" style="text;strokeColor=none;align=center;fillColor=none;html=1;verticalAlign=middle;whiteSpace=wrap;rounded=0;" vertex="1" parent="1">
          <mxGeometry x="510" y="200" width="70" height="50" as="geometry" />
        </mxCell>
        <mxCell id="Du1YflRCCDf4dTkNwt9_-93" value="&lt;span style=&quot;font-size: 10px;&quot;&gt;Backend route&lt;/span&gt;&lt;div&gt;&lt;span style=&quot;font-size: 10px;&quot;&gt;to handle cleanup&amp;nbsp;&lt;/span&gt;&lt;/div&gt;&lt;div&gt;&lt;span style=&quot;font-size: 10px;&quot;&gt;data feed&lt;/span&gt;&lt;/div&gt;" style="text;strokeColor=none;align=center;fillColor=none;html=1;verticalAlign=middle;whiteSpace=wrap;rounded=0;" vertex="1" parent="1">
          <mxGeometry x="357" y="130" width="135.5" height="40" as="geometry" />
        </mxCell>
        <mxCell id="Du1YflRCCDf4dTkNwt9_-98" style="edgeStyle=orthogonalEdgeStyle;rounded=0;orthogonalLoop=1;jettySize=auto;html=1;exitX=0;exitY=0.5;exitDx=0;exitDy=0;exitPerimeter=0;" edge="1" parent="1" source="Du1YflRCCDf4dTkNwt9_-95">
          <mxGeometry relative="1" as="geometry">
            <mxPoint x="410" y="79.72413793103453" as="targetPoint" />
          </mxGeometry>
        </mxCell>
        <mxCell id="Du1YflRCCDf4dTkNwt9_-95" value="&lt;div&gt;Cloudinary&lt;/div&gt;Database" style="shape=cylinder3;whiteSpace=wrap;html=1;boundedLbl=1;backgroundOutline=1;size=15;fillColor=#dae8fc;strokeColor=#6c8ebf;" vertex="1" parent="1">
          <mxGeometry x="441" y="40" width="69" height="80" as="geometry" />
        </mxCell>
        <mxCell id="Du1YflRCCDf4dTkNwt9_-96" value="&lt;span style=&quot;font-size: 10px;&quot;&gt;Route to cloudinary handler&lt;/span&gt;" style="text;strokeColor=none;align=center;fillColor=none;html=1;verticalAlign=middle;whiteSpace=wrap;rounded=0;" vertex="1" parent="1">
          <mxGeometry x="510" y="40" width="60" height="50" as="geometry" />
        </mxCell>
        <mxCell id="Du1YflRCCDf4dTkNwt9_-99" style="edgeStyle=orthogonalEdgeStyle;rounded=0;orthogonalLoop=1;jettySize=auto;html=1;exitX=0;exitY=0.5;exitDx=0;exitDy=0;" edge="1" parent="1" source="Du1YflRCCDf4dTkNwt9_-97">
          <mxGeometry relative="1" as="geometry">
            <mxPoint x="200" y="82.48275862068965" as="targetPoint" />
          </mxGeometry>
        </mxCell>
        <mxCell id="Du1YflRCCDf4dTkNwt9_-97" value="Fetch image from the database, scan and calculate reduction in waste" style="rounded=0;whiteSpace=wrap;html=1;fillColor=#dae8fc;strokeColor=#6c8ebf;" vertex="1" parent="1">
          <mxGeometry x="286.5" y="45" width="120" height="75" as="geometry" />
        </mxCell>
        <mxCell id="Du1YflRCCDf4dTkNwt9_-102" value="" style="endArrow=none;html=1;rounded=0;exitX=0.514;exitY=1.007;exitDx=0;exitDy=0;exitPerimeter=0;" edge="1" parent="1">
          <mxGeometry width="50" height="50" relative="1" as="geometry">
            <mxPoint x="101.11999999999989" y="220.40993000000003" as="sourcePoint" />
            <mxPoint x="100" y="320" as="targetPoint" />
          </mxGeometry>
        </mxCell>
        <mxCell id="Du1YflRCCDf4dTkNwt9_-103" value="" style="endArrow=none;html=1;rounded=0;" edge="1" parent="1">
          <mxGeometry width="50" height="50" relative="1" as="geometry">
            <mxPoint x="100" y="320" as="sourcePoint" />
            <mxPoint x="160" y="320" as="targetPoint" />
          </mxGeometry>
        </mxCell>
        <mxCell id="Du1YflRCCDf4dTkNwt9_-104" value="&lt;span style=&quot;font-size: 10px;&quot;&gt;Register Data&lt;/span&gt;&lt;div&gt;&lt;span style=&quot;font-size: 10px;&quot;&gt;to Heatmap&lt;/span&gt;&lt;/div&gt;" style="text;strokeColor=none;align=center;fillColor=none;html=1;verticalAlign=middle;whiteSpace=wrap;rounded=0;" vertex="1" parent="1">
          <mxGeometry x="30" y="57.5" width="60" height="50" as="geometry" />
        </mxCell>
        <mxCell id="Du1YflRCCDf4dTkNwt9_-105" value="" style="verticalLabelPosition=bottom;verticalAlign=top;html=1;shadow=0;dashed=0;strokeWidth=1;shape=mxgraph.ios.iBgMap;strokeColor=#18211b;strokeColor2=#008cff;fillColor2=#96D1FF;" vertex="1" parent="1">
          <mxGeometry x="70" y="160" width="60" height="75" as="geometry" />
        </mxCell>
        <mxCell id="Du1YflRCCDf4dTkNwt9_-106" value="Heatmap&lt;div&gt;Database&lt;/div&gt;" style="shape=cylinder3;whiteSpace=wrap;html=1;boundedLbl=1;backgroundOutline=1;size=15;fillColor=#f8cecc;strokeColor=#b85450;" vertex="1" parent="1">
          <mxGeometry x="-39" y="155" width="69" height="80" as="geometry" />
        </mxCell>
        <mxCell id="Du1YflRCCDf4dTkNwt9_-107" style="edgeStyle=orthogonalEdgeStyle;rounded=0;orthogonalLoop=1;jettySize=auto;html=1;exitX=1;exitY=0;exitDx=0;exitDy=52.5;exitPerimeter=0;entryX=-0.05;entryY=0.64;entryDx=0;entryDy=0;entryPerimeter=0;" edge="1" parent="1" source="Du1YflRCCDf4dTkNwt9_-106" target="Du1YflRCCDf4dTkNwt9_-105">
          <mxGeometry relative="1" as="geometry" />
        </mxCell>
        <mxCell id="Du1YflRCCDf4dTkNwt9_-108" value="" style="endArrow=classic;html=1;rounded=0;exitX=-0.024;exitY=0.291;exitDx=0;exitDy=0;exitPerimeter=0;entryX=1;entryY=0.329;entryDx=0;entryDy=0;entryPerimeter=0;" edge="1" parent="1" source="Du1YflRCCDf4dTkNwt9_-105" target="Du1YflRCCDf4dTkNwt9_-106">
          <mxGeometry width="50" height="50" relative="1" as="geometry">
            <mxPoint x="90" y="240" as="sourcePoint" />
            <mxPoint x="140" y="190" as="targetPoint" />
          </mxGeometry>
        </mxCell>
        <mxCell id="Du1YflRCCDf4dTkNwt9_-109" value="&lt;span style=&quot;font-size: 8px;&quot;&gt;Register&lt;/span&gt;&lt;div&gt;&lt;span style=&quot;font-size: 8px;&quot;&gt;to&lt;/span&gt;&lt;div&gt;&lt;span style=&quot;font-size: 8px;&quot;&gt;DB&lt;/span&gt;&lt;/div&gt;&lt;/div&gt;" style="text;strokeColor=none;align=center;fillColor=none;html=1;verticalAlign=middle;whiteSpace=wrap;rounded=0;" vertex="1" parent="1">
          <mxGeometry x="20" y="130" width="60" height="50" as="geometry" />
        </mxCell>
        <mxCell id="Du1YflRCCDf4dTkNwt9_-110" value="&lt;span style=&quot;font-size: 8px;&quot;&gt;Retrieve&lt;/span&gt;&lt;div&gt;&lt;span style=&quot;font-size: 8px;&quot;&gt;from&lt;/span&gt;&lt;br&gt;&lt;div&gt;&lt;span style=&quot;font-size: 8px;&quot;&gt;DB&lt;/span&gt;&lt;/div&gt;&lt;/div&gt;" style="text;strokeColor=none;align=center;fillColor=none;html=1;verticalAlign=middle;whiteSpace=wrap;rounded=0;" vertex="1" parent="1">
          <mxGeometry x="20" y="210" width="60" height="50" as="geometry" />
        </mxCell>
        <mxCell id="Du1YflRCCDf4dTkNwt9_-111" value="Safety Matrix" style="rounded=0;whiteSpace=wrap;html=1;fillColor=#dae8fc;strokeColor=#6c8ebf;" vertex="1" parent="1">
          <mxGeometry x="170" y="170" width="50" height="70" as="geometry" />
        </mxCell>
        <mxCell id="Du1YflRCCDf4dTkNwt9_-112" value="Volume of the waste" style="rounded=0;whiteSpace=wrap;html=1;fillColor=#dae8fc;strokeColor=#6c8ebf;" vertex="1" parent="1">
          <mxGeometry x="230" y="170" width="50" height="70" as="geometry" />
        </mxCell>
        <mxCell id="Du1YflRCCDf4dTkNwt9_-113" value="Location of the waste" style="rounded=0;whiteSpace=wrap;html=1;fillColor=#dae8fc;strokeColor=#6c8ebf;" vertex="1" parent="1">
          <mxGeometry x="290" y="170" width="51" height="70" as="geometry" />
        </mxCell>
        <mxCell id="Du1YflRCCDf4dTkNwt9_-114" value="&lt;span style=&quot;font-size: 8px;&quot;&gt;Redirect to&amp;nbsp;&lt;/span&gt;&lt;div&gt;&lt;span style=&quot;font-size: 8px;&quot;&gt;operations&lt;/span&gt;&lt;/div&gt;" style="text;strokeColor=none;align=center;fillColor=none;html=1;verticalAlign=middle;whiteSpace=wrap;rounded=0;" vertex="1" parent="1">
          <mxGeometry x="40" y="280" width="60" height="50" as="geometry" />
        </mxCell>
        <mxCell id="Du1YflRCCDf4dTkNwt9_-115" value="" style="rounded=0;whiteSpace=wrap;html=1;opacity=0;" vertex="1" parent="1">
          <mxGeometry x="-59.5" y="-20" width="750" height="690" as="geometry" />
        </mxCell>
        <mxCell id="Du1YflRCCDf4dTkNwt9_-116" value="&lt;b&gt;&lt;font style=&quot;font-size: 24px;&quot;&gt;Registered Official Flow&lt;/font&gt;&lt;/b&gt;" style="text;strokeColor=none;align=center;fillColor=none;html=1;verticalAlign=middle;whiteSpace=wrap;rounded=0;" vertex="1" parent="1">
          <mxGeometry x="166.5" y="-35" width="329" height="80" as="geometry" />
        </mxCell>
      </root>
    </mxGraphModel>
  </diagram>
</mxfile>
